<svg id="ba6c0913-a8ab-45d5-b322-e845dc1afa65" data-name="Capa 1" xmlns="http://www.w3.org/2000/svg" viewBox="0 0 453 453"><path d="M344.62,31.84a10,10,0,0,0-17,7.07V92.16c-53.89,2.14-80.88,24.48-85,28.19a151.26,151.26,0,0,0-52.49,87.93A154.79,154.79,0,0,0,188.32,259V259c0,.15.05.3.07.45l2.12,12.19a10,10,0,0,0,18.39,3.42l6.35-10.59c19.52-32.46,43.84-54,72.31-64a104.86,104.86,0,0,1,40-5.87v55.15a10,10,0,0,0,17,7l105.44-106a10,10,0,0,0,0-14.11Zm2.94,193.79V185.69a10,10,0,0,0-8.39-9.85c-8.54-1.38-31.31-3.56-58.21,5.86-28.7,10.06-53.54,29.85-74,58.93a143.13,143.13,0,0,1,2.7-28.47c6.07-30.66,21.47-56.42,45.78-76.54a8.24,8.24,0,0,0,.62-.56c.7-.64,26-23.52,81.43-23.11h.07a10,10,0,0,0,10-10v-39l81.35,81Z"/><path d="M416.43,322.74a10,10,0,0,0-10,10v42.17a30,30,0,0,1-29.94,29.93H49.89A30,30,0,0,1,20,374.89V137.17a30,30,0,0,1,29.93-29.93h69a10,10,0,0,0,0-20h-69A50,50,0,0,0,0,137.17V374.89a50,50,0,0,0,49.89,49.89H376.52a50,50,0,0,0,49.89-49.89V332.72A10,10,0,0,0,416.43,322.74Z"/></svg>